HIERARCHY
ROOT Hips
{
	OFFSET -0.001795 -0.223333 0.028219
	CHANNELS 6 Xposition Yposition Zposition Zrotation Yrotation Xrotation 
	JOINT LeftUpLeg
	{
		OFFSET 0.069520 -0.091406 -0.006815
		CHANNELS 3 Zrotation Yrotation Xrotation
		JOINT LeftLeg
		{
			OFFSET 0.034277 -0.375199 -0.004496
			CHANNELS 3 Zrotation Yrotation Xrotation
			JOINT LeftFoot
			{
				OFFSET -0.013596 -0.397961 -0.043693
				CHANNELS 3 Zrotation Yrotation Xrotation
				JOINT LeftToe
				{
					OFFSET 0.026358 -0.055791 0.119288
					CHANNELS 3 Zrotation Yrotation Xrotation
					End Site
					{
						OFFSET 0.000000 0.000000 0.000000
					}
				}
			}
		}
	}
	JOINT RightUpLeg
	{
		OFFSET -0.067670 -0.090522 -0.004320
		CHANNELS 3 Zrotation Yrotation Xrotation
		JOINT RightLeg
		{
			OFFSET -0.038290 -0.382569 -0.008850
			CHANNELS 3 Zrotation Yrotation Xrotation
			JOINT RightFoot
			{
				OFFSET 0.015774 -0.398415 -0.042312
				CHANNELS 3 Zrotation Yrotation Xrotation
				JOINT RightToe
				{
					OFFSET -0.025372 -0.048144 0.123348
					CHANNELS 3 Zrotation Yrotation Xrotation
					End Site
					{
						OFFSET 0.000000 0.000000 0.000000
					}
				}
			}
		}
	}
	JOINT Spine
	{
		OFFSET -0.002533 0.108963 -0.026696
		CHANNELS 3 Zrotation Yrotation Xrotation
		JOINT Spine1
		{
			OFFSET 0.005487 0.135180 0.001092
			CHANNELS 3 Zrotation Yrotation Xrotation
			JOINT Spine2
			{
				OFFSET 0.001457 0.052922 0.025425
				CHANNELS 3 Zrotation Yrotation Xrotation
				JOINT Neck
				{
					OFFSET -0.002778 0.213870 -0.042857
					CHANNELS 3 Zrotation Yrotation Xrotation
					JOINT Head
					{
						OFFSET 0.005152 0.064970 0.051349
						CHANNELS 3 Zrotation Yrotation Xrotation
						End Site
						{
							OFFSET 0.000000 0.000000 0.000000
						}
					}
				}
				JOINT LeftShoulder
				{
					OFFSET 0.078845 0.121749 -0.034090
					CHANNELS 3 Zrotation Yrotation Xrotation
					JOINT LeftArm
					{
						OFFSET 0.090977 0.030469 -0.008868
						CHANNELS 3 Zrotation Yrotation Xrotation
						JOINT LeftForeArm
						{
							OFFSET 0.259612 -0.012772 -0.027456
							CHANNELS 3 Zrotation Yrotation Xrotation
							JOINT LeftHand
							{
								OFFSET 0.249234 0.008986 -0.001171
								CHANNELS 3 Zrotation Yrotation Xrotation
								End Site
								{
									OFFSET 0.000000 0.000000 0.000000
								}
							}
						}
					}
				}
				JOINT RightShoulder
				{
					OFFSET -0.081759 0.118833 -0.038615
					CHANNELS 3 Zrotation Yrotation Xrotation
					JOINT RightArm
					{
						OFFSET -0.096012 0.032551 -0.009143
						CHANNELS 3 Zrotation Yrotation Xrotation
						JOINT RightForeArm
						{
							OFFSET -0.253742 -0.013329 -0.021401
							CHANNELS 3 Zrotation Yrotation Xrotation
							JOINT RightHand
							{
								OFFSET -0.255298 0.007772 -0.005559
								CHANNELS 3 Zrotation Yrotation Xrotation
								End Site
								{
									OFFSET 0.000000 0.000000 0.000000
								}
							}
						}
					}
				}
			}
		}
	}
}
MOTION
Frames: 13
Frame Time: 0.050000
-0.326652 0.924740 -0.061077 9.985758 -73.657042 -1.424718 10.077479 3.861580 -11.013348 -5.893999 2.861798 4.613824 35.385169 31.896290 50.807960 0.000000 0.000000 0.000000 -14.650496 6.505081 -29.098952 4.418387 1.953521 14.930577 -38.929536 -34.692785 56.990084 0.000000 0.000000 0.000000 8.886670 1.269136 22.212357 7.503739 -0.649575 2.808155 -11.321677 -10.202333 5.722229 0.469388 -3.372560 -22.840514 0.000000 0.000000 0.000000 -35.603915 -21.424635 33.577902 -10.777132 -35.639806 -3.231622 25.442200 -57.588978 -12.259185 0.000000 0.000000 0.000000 28.030216 11.990756 -14.979756 37.335237 -24.220603 -6.429335 26.681409 72.965033 13.228667 0.000000 0.000000 0.000000 
-0.312769 0.929322 -0.038774 4.249816 -68.243556 1.977434 9.983923 2.964058 -8.517252 -5.846266 2.079852 1.196219 36.499269 34.808840 49.337945 0.000000 0.000000 0.000000 -13.164773 4.887451 -24.712426 1.502435 1.690971 13.717573 -37.574284 -32.529843 60.174782 0.000000 0.000000 0.000000 7.930149 0.665329 20.044778 6.734860 -0.633414 3.857335 -11.136945 -6.563087 5.037751 2.868962 -4.007803 -20.822449 0.000000 0.000000 0.000000 -35.303241 -20.179265 29.335491 -15.181840 -30.928055 -2.351272 14.386952 -58.700774 -5.689525 0.000000 0.000000 0.000000 30.218887 11.158251 -13.507475 38.167704 -24.826718 -7.101151 27.928604 70.413712 14.513185 0.000000 0.000000 0.000000 
-0.296554 0.930706 -0.016070 1.488034 -64.034505 3.213554 10.022801 2.690371 -8.499375 -7.013508 2.368486 1.426560 37.954305 37.262938 48.575891 0.000000 0.000000 0.000000 -12.448263 4.143051 -22.665759 -1.098295 1.974840 14.430632 -35.758878 -30.946428 63.314449 0.000000 0.000000 0.000000 7.377767 0.348819 18.821086 5.002068 -0.271464 4.292095 -10.339825 -4.532065 4.680882 2.747235 -3.630629 -19.181253 0.000000 0.000000 0.000000 -36.504889 -18.279122 26.723013 -15.770808 -27.235319 -2.343060 8.875499 -59.136327 -2.618337 0.000000 0.000000 0.000000 32.526490 10.068824 -13.265503 37.608470 -24.805531 -7.042734 32.890327 67.732510 18.070105 0.000000 0.000000 0.000000 
-0.279127 0.930479 0.006525 -0.602052 -60.193208 4.256242 9.703342 2.263865 -7.937097 -7.879121 2.351454 0.031486 36.553349 38.806959 43.166743 0.000000 0.000000 0.000000 -12.778099 3.761886 -21.547067 -1.921231 2.288142 15.628780 -26.230174 -30.624854 57.765355 0.000000 0.000000 0.000000 6.750849 0.049527 17.160335 3.619331 0.255239 5.294591 -9.371807 -2.843289 3.504738 2.056646 -2.853149 -17.988856 0.000000 0.000000 0.000000 -36.022237 -16.508024 23.151869 -18.402043 -24.112178 -2.071745 0.259544 -59.917912 2.682238 0.000000 0.000000 0.000000 34.177276 9.609590 -12.117667 36.991762 -24.525003 -7.015093 40.991829 65.877216 23.694412 0.000000 0.000000 0.000000 
-0.262064 0.930129 0.028302 -1.569746 -56.018522 4.019130 9.396821 1.992462 -8.653879 -9.393252 2.909363 1.650473 33.742755 39.171723 36.978771 0.000000 0.000000 0.000000 -12.819766 3.460479 -21.073653 -3.424089 3.310519 18.882884 -12.032798 -27.007914 48.309354 0.000000 0.000000 0.000000 6.051182 -0.021122 16.987620 2.300863 0.617053 5.622885 -8.758906 -1.502909 2.680265 1.405385 -2.134774 -16.796318 0.000000 0.000000 0.000000 -36.408589 -15.617451 20.946222 -19.158154 -19.448719 -2.240633 -8.197248 -63.607047 8.300105 0.000000 0.000000 0.000000 36.373124 8.218524 -11.903544 35.005522 -23.529320 -6.376104 49.143767 63.625186 28.959885 0.000000 0.000000 0.000000 
-0.246351 0.930133 0.049095 -2.815672 -51.213137 3.097823 8.991442 1.527803 -7.280782 -10.164132 2.954839 1.476647 30.110162 38.884212 30.440185 0.000000 0.000000 0.000000 -12.237249 2.885248 -19.260501 -0.903260 3.321696 21.348029 -5.372266 -23.343683 37.256388 0.000000 0.000000 0.000000 5.811214 -0.116817 17.101862 1.615858 1.037104 7.528792 -8.347053 -0.661644 0.452721 1.047551 -1.437039 -16.867097 0.000000 0.000000 0.000000 -36.011289 -14.323495 17.517972 -20.525633 -16.387610 -2.127051 -23.281262 -64.486952 18.422317 0.000000 0.000000 0.000000 36.444834 6.975582 -10.366593 36.153673 -22.474544 -6.768361 53.190506 61.851836 31.004046 0.000000 0.000000 0.000000 
-0.232669 0.929419 0.068309 -3.567609 -45.232686 2.834895 8.389039 1.167159 -8.226812 -10.654047 3.133195 3.421580 25.699538 36.986658 23.717405 0.000000 0.000000 0.000000 -11.706970 2.419142 -17.888153 2.751164 2.852467 23.719693 -2.526752 -18.683790 25.452615 0.000000 0.000000 0.000000 5.564812 -0.296385 16.672408 1.082717 0.998876 7.718926 -7.924951 0.373247 -0.010652 0.370583 -0.690849 -16.227948 0.000000 0.000000 0.000000 -36.255678 -14.051816 15.493651 -21.447737 -12.648289 -2.266515 -37.820553 -66.835856 29.435970 0.000000 0.000000 0.000000 37.444798 6.480593 -8.959223 36.107482 -21.195875 -6.716075 55.902369 62.648050 34.046092 0.000000 0.000000 0.000000 
-0.221428 0.929706 0.086370 -4.601432 -39.422713 2.345458 8.208207 0.888760 -7.932420 -11.044321 3.136021 4.443894 21.536082 34.260689 18.032172 0.000000 0.000000 0.000000 -10.246496 1.922712 -15.905607 6.761823 2.024926 25.706820 -8.153367 -23.315582 19.367608 0.000000 0.000000 0.000000 5.282079 -0.447562 16.193224 0.669566 1.000565 8.212394 -7.254821 2.252528 -1.520719 1.125135 -0.632731 -17.083602 0.000000 0.000000 0.000000 -35.324816 -13.067620 12.079352 -23.740191 -9.956100 -2.235155 -52.925537 -65.311021 39.597756 0.000000 0.000000 0.000000 37.488827 5.543203 -7.082977 38.247794 -19.235496 -7.155482 52.070000 62.974014 32.314082 0.000000 0.000000 0.000000 
-0.212305 0.930780 0.104248 -5.093152 -32.584205 1.688436 7.112507 0.454889 -7.836501 -10.201491 2.716933 5.582515 17.411841 30.374128 13.179355 0.000000 0.000000 0.000000 -9.118576 1.576269 -14.806670 10.584924 0.802671 27.177163 -16.100163 -32.310202 19.930887 0.000000 0.000000 0.000000 5.437124 -0.660083 15.412204 -0.360486 1.155321 7.669737 -6.103614 3.772749 -1.705911 0.394085 0.141276 -16.127808 0.000000 0.000000 0.000000 -35.338177 -12.400369 9.454836 -24.902319 -6.833744 -2.349983 -66.605040 -63.432435 48.270409 0.000000 0.000000 0.000000 37.953439 4.253936 -5.817978 38.794096 -17.155006 -7.163844 51.237220 63.445788 32.893626 0.000000 0.000000 0.000000 
-0.205076 0.932059 0.122615 -5.369032 -25.075797 0.432038 6.041419 0.116173 -7.024013 -9.349033 2.291324 6.753934 13.322901 25.328948 8.925239 0.000000 0.000000 0.000000 -8.068998 1.220572 -12.999187 10.993768 0.184721 30.056984 -17.277125 -33.631168 19.559482 0.000000 0.000000 0.000000 5.002698 -0.756475 14.007568 -0.281772 0.805540 7.680786 -5.917583 5.953174 -1.786866 1.026720 0.257422 -16.137550 0.000000 0.000000 0.000000 -34.244231 -11.958175 6.367142 -27.223547 -4.412424 -2.369121 -73.132143 -60.624892 50.349685 0.000000 0.000000 0.000000 37.119299 3.377167 -3.465909 42.050159 -14.169329 -7.682257 44.038259 64.255657 29.514839 0.000000 0.000000 0.000000 
-0.199538 0.932425 0.141145 -5.152209 -16.990840 -1.233916 4.095317 -0.170748 -5.604479 -7.454263 1.592971 7.662258 9.537439 19.549178 5.168852 0.000000 0.000000 0.000000 -7.371341 0.970944 -12.108166 10.494367 -0.393667 34.893889 -16.376716 -32.618147 18.331784 0.000000 0.000000 0.000000 4.440874 -0.798175 13.154805 -0.437609 0.538743 6.904369 -5.441948 7.305943 -0.828084 1.166024 0.532073 -15.359054 0.000000 0.000000 0.000000 -33.460795 -12.458659 4.531310 -28.557323 -1.753053 -2.551721 -77.839258 -58.107045 50.966134 0.000000 0.000000 0.000000 37.006558 2.826526 -1.423214 42.698502 -11.019443 -7.475895 40.219501 65.265545 28.570093 0.000000 0.000000 0.000000 
-0.195977 0.934969 0.158732 -5.320924 -9.625533 -2.731568 3.296831 -0.234879 -4.585570 -6.225060 1.171695 9.510574 6.342091 13.626401 3.306194 0.000000 0.000000 0.000000 -5.105185 0.830331 -10.795224 9.122471 -0.909207 38.545588 -15.447754 -31.460886 16.629674 0.000000 0.000000 0.000000 3.670899 -0.760618 11.983609 -0.032920 0.092964 7.143621 -4.938618 8.948208 0.810464 1.359266 0.990876 -16.650994 0.000000 0.000000 0.000000 -32.517804 -12.784701 2.627724 -30.225764 -0.117246 -2.637586 -79.644571 -57.820647 51.119286 0.000000 0.000000 0.000000 36.908367 2.633380 0.964209 44.232147 -7.109086 -7.256687 31.555423 65.845420 24.177992 0.000000 0.000000 0.000000 
-0.194356 0.936725 0.174714 -5.140410 -1.527670 -2.971842 2.010777 -0.302566 -4.070016 -4.242599 0.525740 9.523622 3.088183 7.084954 1.922731 0.000000 0.000000 0.000000 -3.606699 0.911467 -12.085191 7.802925 -1.907275 41.653126 -12.123878 -27.008560 10.826314 0.000000 0.000000 0.000000 3.263505 -0.661681 9.616599 -1.426991 0.629312 8.163210 -3.745047 8.698257 1.699513 0.608103 1.838054 -17.744655 0.000000 0.000000 0.000000 -31.605326 -13.469751 1.773694 -30.857893 0.748980 -2.613881 -82.353268 -57.663136 52.392311 0.000000 0.000000 0.000000 36.439354 3.548834 3.340366 45.783333 -5.029977 -7.292942 27.145518 67.056636 22.561939 0.000000 0.000000 0.000000 
